<svg width="858" height="114" viewBox="0 0 858 114" fill="none" xmlns="http://www.w3.org/2000/svg">
<path d="M780 100V12H819.68C826.872 12 833.079 13.1888 838.301 15.5664C843.554 17.9154 847.603 21.2956 850.449 25.707C853.294 30.0898 854.717 35.2891 854.717 41.3047C854.717 47.4063 853.263 52.5911 850.355 56.8594C847.447 61.099 843.319 64.3359 837.972 66.5703C832.625 68.776 826.293 69.8789 818.977 69.8789H793.883V53.1211H814.661C818.164 53.1211 821.087 52.7057 823.432 51.875C825.809 51.0156 827.607 49.7266 828.826 48.0078C830.046 46.2604 830.655 44.026 830.655 41.3047C830.655 38.5833 830.046 36.3346 828.826 34.5586C827.607 32.7539 825.809 31.4076 823.432 30.5195C821.056 29.6029 818.132 29.1445 814.661 29.1445H803.217V100H780ZM834.079 59.7813L858 100H832.672L809.221 59.7813H834.079Z" fill="white"/>
<path d="M698 100V12H765V29.2734H721.225V47.3203H761.575V64.6367H721.225V82.7266H765V100H698Z" fill="white"/>
<path d="M624.663 12L642.035 39.8008H642.779L660.337 12H686.071L657.364 56L687 100H660.616L642.779 71.8984H642.035L624.198 100H598L627.496 56L598.743 12H624.663Z" fill="white"/>
<path d="M586 12V100H563V12H586Z" fill="white"/>
<path d="M441 12H469.91L494.434 66.4844H495.566L520.09 12H549V100H526.268V45.9453H525.466L502.263 99.4414H487.737L464.534 45.6445H463.732V100H441V12Z" fill="white"/>
<path d="M434 100V109H370V100H434Z" fill="#D01D1D"/>
<path d="M288 29.2734V12H370V29.2734H340.582V100H317.465V29.2734H288Z" fill="white"/>
<path d="M207 12H233.122L253.575 48.8242H254.425L274.878 12H301L265.62 70.6094V100H242.38V70.6094L207 12Z" fill="white"/>
<path d="M22.502 9.47452C23.692 3.94697 28.5791 0 34.2333 0H102C108.627 0 114 5.37258 114 12V102C114 108.627 108.627 114 102 114H14.8583C7.21387 114 1.5182 106.948 3.12701 99.4745L22.502 9.47452Z" fill="#3353C2"/>
<path d="M81.5417 12C81.5417 5.37259 86.9143 0 93.5417 0H139.142C144.796 0 149.683 3.94697 150.873 9.47452L170.248 99.4745C171.857 106.948 166.161 114 158.517 114H93.5417C86.9143 114 81.5417 108.627 81.5417 102V12Z" fill="#D01D1D"/>
<path fill-rule="evenodd" clip-rule="evenodd" d="M133.446 58.3104C136.74 56.1832 136.487 51.3059 132.992 49.5278L115.138 40.449C111.641 38.6709 107.517 41.3314 107.719 45.2369L108.751 65.1881C108.953 69.0935 113.33 71.3143 116.625 69.1828L133.446 58.3104Z" fill="#F8F8F8"/>
<rect x="52.7098" y="16.5398" width="2.89027" height="82.3031" transform="rotate(5.80849 52.7098 16.5398)" fill="#223B95"/>
<rect x="40.4839" y="48.1032" width="20.2946" height="6" transform="rotate(5.93892 40.4839 48.1032)" fill="#373333"/>
<path d="M39.8642 45.5602C39.9214 45.0109 40.413 44.6119 40.9623 44.6691L61.1235 46.7664C61.6728 46.8235 62.0718 47.3152 62.0147 47.8645L61.4973 52.8376L39.3469 50.5334L39.8642 45.5602Z" fill="#F8F8F8"/>
<path d="M39.1385 51.9788L61.2889 54.283L60.7716 59.2562C60.7144 59.8055 60.2228 60.2045 59.6735 60.1473L39.5123 58.05C38.963 57.9929 38.564 57.5012 38.6211 56.9519L39.1385 51.9788Z" fill="#F8F8F8"/>
</svg>
