<svg width="821" height="144" viewBox="0 0 821 144" fill="none" xmlns="http://www.w3.org/2000/svg">
<circle cx="71.6108" cy="71.6108" r="70.1108" stroke="url(#paint0_linear_49_14)" stroke-width="3"/>
<circle cx="71.6108" cy="71.6108" r="24.3901" stroke="url(#paint1_linear_49_14)" stroke-width="3"/>
<circle cx="71.6108" cy="71.6108" r="13.0976" stroke="url(#paint2_linear_49_14)" stroke-width="3"/>
<path d="M142.039 66.7909L91.0052 115.342L66.3809 116.352M66.3809 116.352L62.4677 109.546L56.8609 114.05M66.3809 116.352L60.6464 120.457L56.8609 114.05M56.8609 114.05L54.2592 113.385" stroke="url(#paint3_linear_49_14)" stroke-width="3"/>
<path d="M743 111V23H782.68C789.872 23 796.079 24.1888 801.301 26.5664C806.554 28.9154 810.603 32.2956 813.449 36.707C816.294 41.0898 817.717 46.2891 817.717 52.3047C817.717 58.4062 816.263 63.5911 813.355 67.8594C810.447 72.099 806.319 75.3359 800.972 77.5703C795.625 79.776 789.293 80.8789 781.977 80.8789H756.883V64.1211H777.661C781.164 64.1211 784.087 63.7057 786.432 62.875C788.809 62.0156 790.607 60.7266 791.826 59.0078C793.046 57.2604 793.655 55.026 793.655 52.3047C793.655 49.5833 793.046 47.3346 791.826 45.5586C790.607 43.7539 788.809 42.4076 786.432 41.5195C784.056 40.6029 781.132 40.1445 777.661 40.1445H766.217V111H743ZM797.079 70.7813L821 111H795.672L772.221 70.7813H797.079Z" fill="white"/>
<path d="M661 111V23H728V40.2734H684.225V58.3203H724.575V75.6367H684.225V93.7266H728V111H661Z" fill="white"/>
<path d="M587.663 23L605.035 50.8008H605.779L623.337 23H649.071L620.364 67L650 111H623.616L605.779 82.8984H605.035L587.198 111H561L590.496 67L561.743 23H587.663Z" fill="white"/>
<path d="M549 23V111H526V23H549Z" fill="white"/>
<path d="M404 23H432.91L457.434 77.4844H458.566L483.09 23H512V111H489.268V56.9453H488.466L465.263 110.441H450.737L427.534 56.6445H426.732V111H404V23Z" fill="white"/>
<path d="M391 111V120H327V111H391Z" fill="url(#paint4_linear_49_14)"/>
<path d="M251 40.2734V23H333V40.2734H303.582V111H280.465V40.2734H251Z" fill="white"/>
<path d="M170 23H196.122L216.575 59.8242H217.425L237.878 23H264L228.62 81.6094V111H205.38V81.6094L170 23Z" fill="white"/>
<defs>
<linearGradient id="paint0_linear_49_14" x1="71.6108" y1="0" x2="71.6108" y2="143.222" gradientUnits="userSpaceOnUse">
<stop stop-color="#3353C2"/>
<stop offset="1" stop-color="#D01D1D"/>
</linearGradient>
<linearGradient id="paint1_linear_49_14" x1="71.6108" y1="45.7208" x2="71.6108" y2="97.5009" gradientUnits="userSpaceOnUse">
<stop stop-color="#3353C2"/>
<stop offset="1" stop-color="#D01D1D"/>
</linearGradient>
<linearGradient id="paint2_linear_49_14" x1="71.6108" y1="57.0132" x2="71.6108" y2="86.2084" gradientUnits="userSpaceOnUse">
<stop stop-color="#3353C2"/>
<stop offset="1" stop-color="#D01D1D"/>
</linearGradient>
<linearGradient id="paint3_linear_49_14" x1="95.7392" y1="73.5302" x2="101.7" y2="114.481" gradientUnits="userSpaceOnUse">
<stop stop-color="#3353C2"/>
<stop offset="1" stop-color="#D01D1D"/>
</linearGradient>
<linearGradient id="paint4_linear_49_14" x1="327" y1="120" x2="391" y2="120" gradientUnits="userSpaceOnUse">
<stop stop-color="#3353C2"/>
<stop offset="1" stop-color="#D01D1D"/>
</linearGradient>
</defs>
</svg>
